<?xml version="1.0" encoding="utf-8"?>
<!-- Generator: Adobe Illustrator 26.0.2, SVG Export Plug-In . SVG Version: 6.00 Build 0)  -->
<svg version="1.1" id="logo" xmlns="http://www.w3.org/2000/svg" xmlns:xlink="http://www.w3.org/1999/xlink" x="0px" y="0px"
	 viewBox="0 0 425 289" style="enable-background:new 0 0 425 289;" xml:space="preserve">
<style type="text/css">
	.st0{fill-rule:evenodd;clip-rule:evenodd;fill:#79ADDD;}
	.st1{opacity:6.000000e-02;fill-rule:evenodd;clip-rule:evenodd;fill:#161616;enable-background:new    ;}
	.st2{fill-rule:evenodd;clip-rule:evenodd;fill:#D8EAF8;}
</style>
<path class="st0" d="M0,0v90.1c0,0,4.2,31.9,25.1,52.4L173.8,289l79.6-2.1l-14.7-157.1l-29.3-35.6L117.2,0H0z"/>
<path class="st1" d="M96,213l64-169l52,54L96,213z"/>
<path id="Shape_3_copy" class="st1" d="M96,213l79-153l37,38L96,213z"/>
<path class="st2" d="M96.3,213.6L307.8,2.1H425v90.1c0,0-2.4,30-18.8,46.1L253.3,289h-81.7L96.3,213.6z"/>
<image style="overflow:visible;opacity:0.4;enable-background:new    ;" width="166" height="286" xlink:href="AC76E1309AC94AD3.png"  transform="matrix(1.0035 0 0 1.0035 252.2098 2)">
</image>
</svg>
